<?xml version="1.0" encoding="UTF-8" standalone="no"?>
<!DOCTYPE svg PUBLIC "-//W3C//DTD SVG 1.1//EN"
 "http://www.w3.org/Graphics/SVG/1.1/DTD/svg11.dtd">
<!-- Generated by graphviz version 13.0.0 (20250608.1624)
 -->
<!-- Pages: 1 -->
<svg width="1490pt" height="206pt"
 viewBox="0.00 0.00 1490.00 206.00" xmlns="http://www.w3.org/2000/svg" xmlns:xlink="http://www.w3.org/1999/xlink">
<g id="graph0" class="graph" transform="scale(1 1) rotate(0) translate(4 202)">
<polygon fill="#ffffff" stroke="none" points="-4,4 -4,-202 1486,-202 1486,4 -4,4"/>
<!-- X1 -->
<g id="node1" class="node">
<title>X1</title>
<polygon fill="#ffffff" stroke="black" points="180,-161.25 0,-161.25 0,-18.75 180,-18.75 180,-161.25"/>
<polygon fill="#ffffff" stroke="none" points="0,-18.75 0,-161.25 180,-161.25 180,-18.75 0,-18.75"/>
<polygon fill="none" stroke="black" points="0,-137.5 0,-161.25 180,-161.25 180,-137.5 0,-137.5"/>
<text xml:space="preserve" text-anchor="start" x="81.75" y="-143.95" font-family="arial" font-size="14.00">X1</text>
<polygon fill="none" stroke="black" points="0,-113.75 0,-137.5 92.75,-137.5 92.75,-113.75 0,-113.75"/>
<text xml:space="preserve" text-anchor="start" x="4" y="-120.2" font-family="arial" font-size="14.00">Molex KK 254</text>
<polygon fill="none" stroke="black" points="92.75,-113.75 92.75,-137.5 142,-137.5 142,-113.75 92.75,-113.75"/>
<text xml:space="preserve" text-anchor="start" x="96.75" y="-120.2" font-family="arial" font-size="14.00">female</text>
<polygon fill="none" stroke="black" points="142,-113.75 142,-137.5 180,-137.5 180,-113.75 142,-113.75"/>
<text xml:space="preserve" text-anchor="start" x="146" y="-120.2" font-family="arial" font-size="14.00">4&#45;pin</text>
<polygon fill="none" stroke="black" points="0,-90 0,-113.75 101.62,-113.75 101.62,-90 0,-90"/>
<text xml:space="preserve" text-anchor="start" x="35.44" y="-96.45" font-family="arial" font-size="14.00">GND</text>
<polygon fill="none" stroke="black" points="101.62,-90 101.62,-113.75 180,-113.75 180,-90 101.62,-90"/>
<text xml:space="preserve" text-anchor="start" x="137.06" y="-96.45" font-family="arial" font-size="14.00">1</text>
<polygon fill="none" stroke="black" points="0,-66.25 0,-90 101.62,-90 101.62,-66.25 0,-66.25"/>
<text xml:space="preserve" text-anchor="start" x="36.56" y="-72.7" font-family="arial" font-size="14.00">VCC</text>
<polygon fill="none" stroke="black" points="101.62,-66.25 101.62,-90 180,-90 180,-66.25 101.62,-66.25"/>
<text xml:space="preserve" text-anchor="start" x="137.06" y="-72.7" font-family="arial" font-size="14.00">2</text>
<polygon fill="none" stroke="black" points="0,-42.5 0,-66.25 101.62,-66.25 101.62,-42.5 0,-42.5"/>
<text xml:space="preserve" text-anchor="start" x="37.69" y="-48.95" font-family="arial" font-size="14.00">SCL</text>
<polygon fill="none" stroke="black" points="101.62,-42.5 101.62,-66.25 180,-66.25 180,-42.5 101.62,-42.5"/>
<text xml:space="preserve" text-anchor="start" x="137.06" y="-48.95" font-family="arial" font-size="14.00">3</text>
<polygon fill="none" stroke="black" points="0,-18.75 0,-42.5 101.62,-42.5 101.62,-18.75 0,-18.75"/>
<text xml:space="preserve" text-anchor="start" x="36.94" y="-25.2" font-family="arial" font-size="14.00">SDA</text>
<polygon fill="none" stroke="black" points="101.62,-18.75 101.62,-42.5 180,-42.5 180,-18.75 101.62,-18.75"/>
<text xml:space="preserve" text-anchor="start" x="137.06" y="-25.2" font-family="arial" font-size="14.00">4</text>
</g>
<!-- W1 -->
<g id="node4" class="node">
<title>W1</title>
<polygon fill="#ffffff" stroke="black" stroke-dasharray="5,2" points="507,-198 324,-198 324,0 507,0 507,-198"/>
<polygon fill="#ffffff" stroke="none" points="324,0 324,-198 507,-198 507,0 324,0"/>
<polygon fill="none" stroke="black" points="324,-174.25 324,-198 507,-198 507,-174.25 324,-174.25"/>
<text xml:space="preserve" text-anchor="start" x="405" y="-180.7" font-family="arial" font-size="14.00">W1</text>
<polygon fill="none" stroke="black" points="324,-150.5 324,-174.25 358.69,-174.25 358.69,-150.5 324,-150.5"/>
<text xml:space="preserve" text-anchor="start" x="330.84" y="-156.95" font-family="arial" font-size="14.00">I2C</text>
<polygon fill="none" stroke="black" points="358.69,-150.5 358.69,-174.25 386.62,-174.25 386.62,-150.5 358.69,-150.5"/>
<text xml:space="preserve" text-anchor="start" x="365.53" y="-156.95" font-family="arial" font-size="14.00">4x</text>
<polygon fill="none" stroke="black" points="386.62,-150.5 386.62,-174.25 458.81,-174.25 458.81,-150.5 386.62,-150.5"/>
<text xml:space="preserve" text-anchor="start" x="393.47" y="-156.95" font-family="arial" font-size="14.00">0.25 mm²</text>
<polygon fill="none" stroke="black" points="458.81,-150.5 458.81,-174.25 507,-174.25 507,-150.5 458.81,-150.5"/>
<text xml:space="preserve" text-anchor="start" x="465.66" y="-156.95" font-family="arial" font-size="14.00">0.2 m</text>
<text xml:space="preserve" text-anchor="start" x="357.12" y="-135.2" font-family="arial" font-size="14.00"> </text>
<text xml:space="preserve" text-anchor="start" x="326" y="-115.45" font-family="arial" font-size="14.00"> X1:1:GND</text>
<text xml:space="preserve" text-anchor="start" x="396" y="-115.45" font-family="arial" font-size="14.00"> </text>
<text xml:space="preserve" text-anchor="start" x="408.5" y="-115.45" font-family="arial" font-size="14.00">PK</text>
<text xml:space="preserve" text-anchor="start" x="431.25" y="-115.45" font-family="arial" font-size="14.00"> </text>
<text xml:space="preserve" text-anchor="start" x="439" y="-115.45" font-family="arial" font-size="14.00">X2:1:GND </text>
<polygon fill="#000000" stroke="none" points="324,-109 324,-111 507,-111 507,-109 324,-109"/>
<polygon fill="#ff66cc" stroke="none" points="324,-107 324,-109 507,-109 507,-107 324,-107"/>
<polygon fill="#ff66cc" stroke="none" points="324,-105 324,-107 507,-107 507,-105 324,-105"/>
<polygon fill="#000000" stroke="none" points="324,-103 324,-105 507,-105 507,-103 324,-103"/>
<text xml:space="preserve" text-anchor="start" x="326" y="-87.7" font-family="arial" font-size="14.00"> X1:2:VCC</text>
<text xml:space="preserve" text-anchor="start" x="396" y="-87.7" font-family="arial" font-size="14.00"> </text>
<text xml:space="preserve" text-anchor="start" x="407.75" y="-87.7" font-family="arial" font-size="14.00">TQ</text>
<text xml:space="preserve" text-anchor="start" x="431.25" y="-87.7" font-family="arial" font-size="14.00"> </text>
<text xml:space="preserve" text-anchor="start" x="441.25" y="-87.7" font-family="arial" font-size="14.00">X2:2:VCC </text>
<polygon fill="#000000" stroke="none" points="324,-81.25 324,-83.25 507,-83.25 507,-81.25 324,-81.25"/>
<polygon fill="#00ffff" stroke="none" points="324,-79.25 324,-81.25 507,-81.25 507,-79.25 324,-79.25"/>
<polygon fill="#00ffff" stroke="none" points="324,-77.25 324,-79.25 507,-79.25 507,-77.25 324,-77.25"/>
<polygon fill="#000000" stroke="none" points="324,-75.25 324,-77.25 507,-77.25 507,-75.25 324,-75.25"/>
<text xml:space="preserve" text-anchor="start" x="326" y="-59.95" font-family="arial" font-size="14.00"> X1:3:SCL</text>
<text xml:space="preserve" text-anchor="start" x="396" y="-59.95" font-family="arial" font-size="14.00"> </text>
<text xml:space="preserve" text-anchor="start" x="408.5" y="-59.95" font-family="arial" font-size="14.00">YE</text>
<text xml:space="preserve" text-anchor="start" x="431.25" y="-59.95" font-family="arial" font-size="14.00"> </text>
<text xml:space="preserve" text-anchor="start" x="443.5" y="-59.95" font-family="arial" font-size="14.00">X2:3:SCL </text>
<polygon fill="#000000" stroke="none" points="324,-53.5 324,-55.5 507,-55.5 507,-53.5 324,-53.5"/>
<polygon fill="#ffff00" stroke="none" points="324,-51.5 324,-53.5 507,-53.5 507,-51.5 324,-51.5"/>
<polygon fill="#ffff00" stroke="none" points="324,-49.5 324,-51.5 507,-51.5 507,-49.5 324,-49.5"/>
<polygon fill="#000000" stroke="none" points="324,-47.5 324,-49.5 507,-49.5 507,-47.5 324,-47.5"/>
<text xml:space="preserve" text-anchor="start" x="326" y="-32.2" font-family="arial" font-size="14.00"> X1:4:SDA</text>
<text xml:space="preserve" text-anchor="start" x="396" y="-32.2" font-family="arial" font-size="14.00"> </text>
<text xml:space="preserve" text-anchor="start" x="408.88" y="-32.2" font-family="arial" font-size="14.00">VT</text>
<text xml:space="preserve" text-anchor="start" x="431.25" y="-32.2" font-family="arial" font-size="14.00"> </text>
<text xml:space="preserve" text-anchor="start" x="442.75" y="-32.2" font-family="arial" font-size="14.00">X2:4:SDA </text>
<polygon fill="#000000" stroke="none" points="324,-25.75 324,-27.75 507,-27.75 507,-25.75 324,-25.75"/>
<polygon fill="#8000ff" stroke="none" points="324,-23.75 324,-25.75 507,-25.75 507,-23.75 324,-23.75"/>
<polygon fill="#8000ff" stroke="none" points="324,-21.75 324,-23.75 507,-23.75 507,-21.75 324,-21.75"/>
<polygon fill="#000000" stroke="none" points="324,-19.75 324,-21.75 507,-21.75 507,-19.75 324,-19.75"/>
<text xml:space="preserve" text-anchor="start" x="357.12" y="-4.45" font-family="arial" font-size="14.00"> </text>
</g>
<!-- X1&#45;&#45;W1 -->
<g id="edge1" class="edge">
<title>X1:e&#45;&#45;W1:w</title>
<path fill="none" stroke="#000000" stroke-width="2" d="M180,-98.88C244.96,-99.02 260.88,-104.14 324,-104"/>
<path fill="none" stroke="#ff66cc" stroke-width="2" d="M180,-100.88C244.35,-100.92 260.27,-106.05 324,-106"/>
<path fill="none" stroke="#ff66cc" stroke-width="2" d="M180,-102.87C243.73,-102.83 259.65,-107.95 324,-108"/>
<path fill="none" stroke="#000000" stroke-width="2" d="M180,-104.87C243.12,-104.73 259.04,-109.86 324,-110"/>
</g>
<!-- X1&#45;&#45;W1 -->
<g id="edge3" class="edge">
<title>X1:e&#45;&#45;W1:w</title>
<path fill="none" stroke="#000000" stroke-width="2" d="M180,-75.13C244.21,-75.13 260.21,-76.26 324,-76.25"/>
<path fill="none" stroke="#00ffff" stroke-width="2" d="M180,-77.13C244.07,-77.13 260.07,-78.25 324,-78.25"/>
<path fill="none" stroke="#00ffff" stroke-width="2" d="M180,-79.12C243.93,-79.12 259.93,-80.25 324,-80.25"/>
<path fill="none" stroke="#000000" stroke-width="2" d="M180,-81.12C243.79,-81.12 259.79,-82.24 324,-82.25"/>
</g>
<!-- X1&#45;&#45;W1 -->
<g id="edge5" class="edge">
<title>X1:e&#45;&#45;W1:w</title>
<path fill="none" stroke="#000000" stroke-width="2" d="M180,-51.38C243.48,-51.42 259.46,-48.55 324,-48.5"/>
<path fill="none" stroke="#ffff00" stroke-width="2" d="M180,-53.38C243.84,-53.39 259.81,-50.52 324,-50.5"/>
<path fill="none" stroke="#ffff00" stroke-width="2" d="M180,-55.37C244.19,-55.36 260.16,-52.48 324,-52.5"/>
<path fill="none" stroke="#000000" stroke-width="2" d="M180,-57.37C244.54,-57.33 260.52,-54.45 324,-54.5"/>
</g>
<!-- X1&#45;&#45;W1 -->
<g id="edge7" class="edge">
<title>X1:e&#45;&#45;W1:w</title>
<path fill="none" stroke="#000000" stroke-width="2" d="M180,-27.63C242.88,-27.87 258.73,-21 324,-20.75"/>
<path fill="none" stroke="#8000ff" stroke-width="2" d="M180,-29.63C243.68,-29.71 259.53,-22.83 324,-22.75"/>
<path fill="none" stroke="#8000ff" stroke-width="2" d="M180,-31.62C244.47,-31.54 260.32,-24.67 324,-24.75"/>
<path fill="none" stroke="#000000" stroke-width="2" d="M180,-33.62C245.27,-33.38 261.12,-26.5 324,-26.75"/>
</g>
<!-- X2 -->
<g id="node2" class="node">
<title>X2</title>
<polygon fill="#ffffff" stroke="black" points="831,-161.25 651,-161.25 651,-18.75 831,-18.75 831,-161.25"/>
<polygon fill="#ffffff" stroke="none" points="651,-18.75 651,-161.25 831,-161.25 831,-18.75 651,-18.75"/>
<polygon fill="none" stroke="black" points="651,-137.5 651,-161.25 831,-161.25 831,-137.5 651,-137.5"/>
<text xml:space="preserve" text-anchor="start" x="732.75" y="-143.95" font-family="arial" font-size="14.00">X2</text>
<polygon fill="none" stroke="black" points="651,-113.75 651,-137.5 743.75,-137.5 743.75,-113.75 651,-113.75"/>
<text xml:space="preserve" text-anchor="start" x="655" y="-120.2" font-family="arial" font-size="14.00">Molex KK 254</text>
<polygon fill="none" stroke="black" points="743.75,-113.75 743.75,-137.5 793,-137.5 793,-113.75 743.75,-113.75"/>
<text xml:space="preserve" text-anchor="start" x="747.75" y="-120.2" font-family="arial" font-size="14.00">female</text>
<polygon fill="none" stroke="black" points="793,-113.75 793,-137.5 831,-137.5 831,-113.75 793,-113.75"/>
<text xml:space="preserve" text-anchor="start" x="797" y="-120.2" font-family="arial" font-size="14.00">4&#45;pin</text>
<polygon fill="none" stroke="black" points="651,-90 651,-113.75 703.25,-113.75 703.25,-90 651,-90"/>
<text xml:space="preserve" text-anchor="start" x="673.38" y="-96.45" font-family="arial" font-size="14.00">1</text>
<polygon fill="none" stroke="black" points="703.25,-90 703.25,-113.75 778.75,-113.75 778.75,-90 703.25,-90"/>
<text xml:space="preserve" text-anchor="start" x="725.62" y="-96.45" font-family="arial" font-size="14.00">GND</text>
<polygon fill="none" stroke="black" points="778.75,-90 778.75,-113.75 831,-113.75 831,-90 778.75,-90"/>
<text xml:space="preserve" text-anchor="start" x="801.12" y="-96.45" font-family="arial" font-size="14.00">1</text>
<polygon fill="none" stroke="black" points="651,-66.25 651,-90 703.25,-90 703.25,-66.25 651,-66.25"/>
<text xml:space="preserve" text-anchor="start" x="673.38" y="-72.7" font-family="arial" font-size="14.00">2</text>
<polygon fill="none" stroke="black" points="703.25,-66.25 703.25,-90 778.75,-90 778.75,-66.25 703.25,-66.25"/>
<text xml:space="preserve" text-anchor="start" x="726.75" y="-72.7" font-family="arial" font-size="14.00">VCC</text>
<polygon fill="none" stroke="black" points="778.75,-66.25 778.75,-90 831,-90 831,-66.25 778.75,-66.25"/>
<text xml:space="preserve" text-anchor="start" x="801.12" y="-72.7" font-family="arial" font-size="14.00">2</text>
<polygon fill="none" stroke="black" points="651,-42.5 651,-66.25 703.25,-66.25 703.25,-42.5 651,-42.5"/>
<text xml:space="preserve" text-anchor="start" x="673.38" y="-48.95" font-family="arial" font-size="14.00">3</text>
<polygon fill="none" stroke="black" points="703.25,-42.5 703.25,-66.25 778.75,-66.25 778.75,-42.5 703.25,-42.5"/>
<text xml:space="preserve" text-anchor="start" x="727.88" y="-48.95" font-family="arial" font-size="14.00">SCL</text>
<polygon fill="none" stroke="black" points="778.75,-42.5 778.75,-66.25 831,-66.25 831,-42.5 778.75,-42.5"/>
<text xml:space="preserve" text-anchor="start" x="801.12" y="-48.95" font-family="arial" font-size="14.00">3</text>
<polygon fill="none" stroke="black" points="651,-18.75 651,-42.5 703.25,-42.5 703.25,-18.75 651,-18.75"/>
<text xml:space="preserve" text-anchor="start" x="673.38" y="-25.2" font-family="arial" font-size="14.00">4</text>
<polygon fill="none" stroke="black" points="703.25,-18.75 703.25,-42.5 778.75,-42.5 778.75,-18.75 703.25,-18.75"/>
<text xml:space="preserve" text-anchor="start" x="727.12" y="-25.2" font-family="arial" font-size="14.00">SDA</text>
<polygon fill="none" stroke="black" points="778.75,-18.75 778.75,-42.5 831,-42.5 831,-18.75 778.75,-18.75"/>
<text xml:space="preserve" text-anchor="start" x="801.12" y="-25.2" font-family="arial" font-size="14.00">4</text>
</g>
<!-- W2 -->
<g id="node5" class="node">
<title>W2</title>
<polygon fill="#ffffff" stroke="black" stroke-dasharray="5,2" points="1158,-198 975,-198 975,0 1158,0 1158,-198"/>
<polygon fill="#ffffff" stroke="none" points="975,0 975,-198 1158,-198 1158,0 975,0"/>
<polygon fill="none" stroke="black" points="975,-174.25 975,-198 1158,-198 1158,-174.25 975,-174.25"/>
<text xml:space="preserve" text-anchor="start" x="1056" y="-180.7" font-family="arial" font-size="14.00">W2</text>
<polygon fill="none" stroke="black" points="975,-150.5 975,-174.25 1009.69,-174.25 1009.69,-150.5 975,-150.5"/>
<text xml:space="preserve" text-anchor="start" x="981.84" y="-156.95" font-family="arial" font-size="14.00">I2C</text>
<polygon fill="none" stroke="black" points="1009.69,-150.5 1009.69,-174.25 1037.62,-174.25 1037.62,-150.5 1009.69,-150.5"/>
<text xml:space="preserve" text-anchor="start" x="1016.53" y="-156.95" font-family="arial" font-size="14.00">4x</text>
<polygon fill="none" stroke="black" points="1037.62,-150.5 1037.62,-174.25 1109.81,-174.25 1109.81,-150.5 1037.62,-150.5"/>
<text xml:space="preserve" text-anchor="start" x="1044.47" y="-156.95" font-family="arial" font-size="14.00">0.25 mm²</text>
<polygon fill="none" stroke="black" points="1109.81,-150.5 1109.81,-174.25 1158,-174.25 1158,-150.5 1109.81,-150.5"/>
<text xml:space="preserve" text-anchor="start" x="1116.66" y="-156.95" font-family="arial" font-size="14.00">0.2 m</text>
<text xml:space="preserve" text-anchor="start" x="1008.12" y="-135.2" font-family="arial" font-size="14.00"> </text>
<text xml:space="preserve" text-anchor="start" x="977" y="-115.45" font-family="arial" font-size="14.00"> X2:1:GND</text>
<text xml:space="preserve" text-anchor="start" x="1047" y="-115.45" font-family="arial" font-size="14.00"> </text>
<text xml:space="preserve" text-anchor="start" x="1059.5" y="-115.45" font-family="arial" font-size="14.00">PK</text>
<text xml:space="preserve" text-anchor="start" x="1082.25" y="-115.45" font-family="arial" font-size="14.00"> </text>
<text xml:space="preserve" text-anchor="start" x="1090" y="-115.45" font-family="arial" font-size="14.00">X3:1:GND </text>
<polygon fill="#000000" stroke="none" points="975,-109 975,-111 1158,-111 1158,-109 975,-109"/>
<polygon fill="#ff66cc" stroke="none" points="975,-107 975,-109 1158,-109 1158,-107 975,-107"/>
<polygon fill="#ff66cc" stroke="none" points="975,-105 975,-107 1158,-107 1158,-105 975,-105"/>
<polygon fill="#000000" stroke="none" points="975,-103 975,-105 1158,-105 1158,-103 975,-103"/>
<text xml:space="preserve" text-anchor="start" x="977" y="-87.7" font-family="arial" font-size="14.00"> X2:2:VCC</text>
<text xml:space="preserve" text-anchor="start" x="1047" y="-87.7" font-family="arial" font-size="14.00"> </text>
<text xml:space="preserve" text-anchor="start" x="1058.75" y="-87.7" font-family="arial" font-size="14.00">TQ</text>
<text xml:space="preserve" text-anchor="start" x="1082.25" y="-87.7" font-family="arial" font-size="14.00"> </text>
<text xml:space="preserve" text-anchor="start" x="1092.25" y="-87.7" font-family="arial" font-size="14.00">X3:2:VCC </text>
<polygon fill="#000000" stroke="none" points="975,-81.25 975,-83.25 1158,-83.25 1158,-81.25 975,-81.25"/>
<polygon fill="#00ffff" stroke="none" points="975,-79.25 975,-81.25 1158,-81.25 1158,-79.25 975,-79.25"/>
<polygon fill="#00ffff" stroke="none" points="975,-77.25 975,-79.25 1158,-79.25 1158,-77.25 975,-77.25"/>
<polygon fill="#000000" stroke="none" points="975,-75.25 975,-77.25 1158,-77.25 1158,-75.25 975,-75.25"/>
<text xml:space="preserve" text-anchor="start" x="977" y="-59.95" font-family="arial" font-size="14.00"> X2:3:SCL</text>
<text xml:space="preserve" text-anchor="start" x="1047" y="-59.95" font-family="arial" font-size="14.00"> </text>
<text xml:space="preserve" text-anchor="start" x="1059.5" y="-59.95" font-family="arial" font-size="14.00">YE</text>
<text xml:space="preserve" text-anchor="start" x="1082.25" y="-59.95" font-family="arial" font-size="14.00"> </text>
<text xml:space="preserve" text-anchor="start" x="1094.5" y="-59.95" font-family="arial" font-size="14.00">X3:3:SCL </text>
<polygon fill="#000000" stroke="none" points="975,-53.5 975,-55.5 1158,-55.5 1158,-53.5 975,-53.5"/>
<polygon fill="#ffff00" stroke="none" points="975,-51.5 975,-53.5 1158,-53.5 1158,-51.5 975,-51.5"/>
<polygon fill="#ffff00" stroke="none" points="975,-49.5 975,-51.5 1158,-51.5 1158,-49.5 975,-49.5"/>
<polygon fill="#000000" stroke="none" points="975,-47.5 975,-49.5 1158,-49.5 1158,-47.5 975,-47.5"/>
<text xml:space="preserve" text-anchor="start" x="977" y="-32.2" font-family="arial" font-size="14.00"> X2:4:SDA</text>
<text xml:space="preserve" text-anchor="start" x="1047" y="-32.2" font-family="arial" font-size="14.00"> </text>
<text xml:space="preserve" text-anchor="start" x="1059.88" y="-32.2" font-family="arial" font-size="14.00">VT</text>
<text xml:space="preserve" text-anchor="start" x="1082.25" y="-32.2" font-family="arial" font-size="14.00"> </text>
<text xml:space="preserve" text-anchor="start" x="1093.75" y="-32.2" font-family="arial" font-size="14.00">X3:4:SDA </text>
<polygon fill="#000000" stroke="none" points="975,-25.75 975,-27.75 1158,-27.75 1158,-25.75 975,-25.75"/>
<polygon fill="#8000ff" stroke="none" points="975,-23.75 975,-25.75 1158,-25.75 1158,-23.75 975,-23.75"/>
<polygon fill="#8000ff" stroke="none" points="975,-21.75 975,-23.75 1158,-23.75 1158,-21.75 975,-21.75"/>
<polygon fill="#000000" stroke="none" points="975,-19.75 975,-21.75 1158,-21.75 1158,-19.75 975,-19.75"/>
<text xml:space="preserve" text-anchor="start" x="1008.12" y="-4.45" font-family="arial" font-size="14.00"> </text>
</g>
<!-- X2&#45;&#45;W2 -->
<g id="edge9" class="edge">
<title>X2:e&#45;&#45;W2:w</title>
<path fill="none" stroke="#000000" stroke-width="2" d="M831,-98.88C895.96,-99.02 911.88,-104.14 975,-104"/>
<path fill="none" stroke="#ff66cc" stroke-width="2" d="M831,-100.88C895.35,-100.92 911.27,-106.05 975,-106"/>
<path fill="none" stroke="#ff66cc" stroke-width="2" d="M831,-102.87C894.73,-102.83 910.65,-107.95 975,-108"/>
<path fill="none" stroke="#000000" stroke-width="2" d="M831,-104.87C894.12,-104.73 910.04,-109.86 975,-110"/>
</g>
<!-- X2&#45;&#45;W2 -->
<g id="edge11" class="edge">
<title>X2:e&#45;&#45;W2:w</title>
<path fill="none" stroke="#000000" stroke-width="2" d="M831,-75.13C895.21,-75.13 911.21,-76.26 975,-76.25"/>
<path fill="none" stroke="#00ffff" stroke-width="2" d="M831,-77.13C895.07,-77.13 911.07,-78.25 975,-78.25"/>
<path fill="none" stroke="#00ffff" stroke-width="2" d="M831,-79.12C894.93,-79.12 910.93,-80.25 975,-80.25"/>
<path fill="none" stroke="#000000" stroke-width="2" d="M831,-81.12C894.79,-81.12 910.79,-82.24 975,-82.25"/>
</g>
<!-- X2&#45;&#45;W2 -->
<g id="edge13" class="edge">
<title>X2:e&#45;&#45;W2:w</title>
<path fill="none" stroke="#000000" stroke-width="2" d="M831,-51.38C894.48,-51.42 910.46,-48.55 975,-48.5"/>
<path fill="none" stroke="#ffff00" stroke-width="2" d="M831,-53.38C894.84,-53.39 910.81,-50.52 975,-50.5"/>
<path fill="none" stroke="#ffff00" stroke-width="2" d="M831,-55.37C895.19,-55.36 911.16,-52.48 975,-52.5"/>
<path fill="none" stroke="#000000" stroke-width="2" d="M831,-57.37C895.54,-57.33 911.52,-54.45 975,-54.5"/>
</g>
<!-- X2&#45;&#45;W2 -->
<g id="edge15" class="edge">
<title>X2:e&#45;&#45;W2:w</title>
<path fill="none" stroke="#000000" stroke-width="2" d="M831,-27.63C893.88,-27.87 909.73,-21 975,-20.75"/>
<path fill="none" stroke="#8000ff" stroke-width="2" d="M831,-29.63C894.68,-29.71 910.53,-22.83 975,-22.75"/>
<path fill="none" stroke="#8000ff" stroke-width="2" d="M831,-31.62C895.47,-31.54 911.32,-24.67 975,-24.75"/>
<path fill="none" stroke="#000000" stroke-width="2" d="M831,-33.62C896.27,-33.38 912.12,-26.5 975,-26.75"/>
</g>
<!-- X3 -->
<g id="node3" class="node">
<title>X3</title>
<polygon fill="#ffffff" stroke="black" points="1482,-161.25 1302,-161.25 1302,-18.75 1482,-18.75 1482,-161.25"/>
<polygon fill="#ffffff" stroke="none" points="1302,-18.75 1302,-161.25 1482,-161.25 1482,-18.75 1302,-18.75"/>
<polygon fill="none" stroke="black" points="1302,-137.5 1302,-161.25 1482,-161.25 1482,-137.5 1302,-137.5"/>
<text xml:space="preserve" text-anchor="start" x="1383.75" y="-143.95" font-family="arial" font-size="14.00">X3</text>
<polygon fill="none" stroke="black" points="1302,-113.75 1302,-137.5 1394.75,-137.5 1394.75,-113.75 1302,-113.75"/>
<text xml:space="preserve" text-anchor="start" x="1306" y="-120.2" font-family="arial" font-size="14.00">Molex KK 254</text>
<polygon fill="none" stroke="black" points="1394.75,-113.75 1394.75,-137.5 1444,-137.5 1444,-113.75 1394.75,-113.75"/>
<text xml:space="preserve" text-anchor="start" x="1398.75" y="-120.2" font-family="arial" font-size="14.00">female</text>
<polygon fill="none" stroke="black" points="1444,-113.75 1444,-137.5 1482,-137.5 1482,-113.75 1444,-113.75"/>
<text xml:space="preserve" text-anchor="start" x="1448" y="-120.2" font-family="arial" font-size="14.00">4&#45;pin</text>
<polygon fill="none" stroke="black" points="1302,-90 1302,-113.75 1380.38,-113.75 1380.38,-90 1302,-90"/>
<text xml:space="preserve" text-anchor="start" x="1337.44" y="-96.45" font-family="arial" font-size="14.00">1</text>
<polygon fill="none" stroke="black" points="1380.38,-90 1380.38,-113.75 1482,-113.75 1482,-90 1380.38,-90"/>
<text xml:space="preserve" text-anchor="start" x="1415.81" y="-96.45" font-family="arial" font-size="14.00">GND</text>
<polygon fill="none" stroke="black" points="1302,-66.25 1302,-90 1380.38,-90 1380.38,-66.25 1302,-66.25"/>
<text xml:space="preserve" text-anchor="start" x="1337.44" y="-72.7" font-family="arial" font-size="14.00">2</text>
<polygon fill="none" stroke="black" points="1380.38,-66.25 1380.38,-90 1482,-90 1482,-66.25 1380.38,-66.25"/>
<text xml:space="preserve" text-anchor="start" x="1416.94" y="-72.7" font-family="arial" font-size="14.00">VCC</text>
<polygon fill="none" stroke="black" points="1302,-42.5 1302,-66.25 1380.38,-66.25 1380.38,-42.5 1302,-42.5"/>
<text xml:space="preserve" text-anchor="start" x="1337.44" y="-48.95" font-family="arial" font-size="14.00">3</text>
<polygon fill="none" stroke="black" points="1380.38,-42.5 1380.38,-66.25 1482,-66.25 1482,-42.5 1380.38,-42.5"/>
<text xml:space="preserve" text-anchor="start" x="1418.06" y="-48.95" font-family="arial" font-size="14.00">SCL</text>
<polygon fill="none" stroke="black" points="1302,-18.75 1302,-42.5 1380.38,-42.5 1380.38,-18.75 1302,-18.75"/>
<text xml:space="preserve" text-anchor="start" x="1337.44" y="-25.2" font-family="arial" font-size="14.00">4</text>
<polygon fill="none" stroke="black" points="1380.38,-18.75 1380.38,-42.5 1482,-42.5 1482,-18.75 1380.38,-18.75"/>
<text xml:space="preserve" text-anchor="start" x="1417.31" y="-25.2" font-family="arial" font-size="14.00">SDA</text>
</g>
<!-- W1&#45;&#45;X2 -->
<g id="edge2" class="edge">
<title>W1:e&#45;&#45;X2:w</title>
<path fill="none" stroke="#000000" stroke-width="2" d="M507,-104C570.12,-104.14 586.04,-99.02 651,-98.88"/>
<path fill="none" stroke="#ff66cc" stroke-width="2" d="M507,-106C570.73,-106.05 586.65,-100.92 651,-100.88"/>
<path fill="none" stroke="#ff66cc" stroke-width="2" d="M507,-108C571.35,-107.95 587.27,-102.83 651,-102.87"/>
<path fill="none" stroke="#000000" stroke-width="2" d="M507,-110C571.96,-109.86 587.88,-104.73 651,-104.87"/>
</g>
<!-- W1&#45;&#45;X2 -->
<g id="edge4" class="edge">
<title>W1:e&#45;&#45;X2:w</title>
<path fill="none" stroke="#000000" stroke-width="2" d="M507,-76.25C570.79,-76.26 586.79,-75.13 651,-75.13"/>
<path fill="none" stroke="#00ffff" stroke-width="2" d="M507,-78.25C570.93,-78.25 586.93,-77.13 651,-77.13"/>
<path fill="none" stroke="#00ffff" stroke-width="2" d="M507,-80.25C571.07,-80.25 587.07,-79.12 651,-79.12"/>
<path fill="none" stroke="#000000" stroke-width="2" d="M507,-82.25C571.21,-82.24 587.21,-81.12 651,-81.12"/>
</g>
<!-- W1&#45;&#45;X2 -->
<g id="edge6" class="edge">
<title>W1:e&#45;&#45;X2:w</title>
<path fill="none" stroke="#000000" stroke-width="2" d="M507,-48.5C571.54,-48.55 587.52,-51.42 651,-51.38"/>
<path fill="none" stroke="#ffff00" stroke-width="2" d="M507,-50.5C571.19,-50.52 587.16,-53.39 651,-53.38"/>
<path fill="none" stroke="#ffff00" stroke-width="2" d="M507,-52.5C570.84,-52.48 586.81,-55.36 651,-55.37"/>
<path fill="none" stroke="#000000" stroke-width="2" d="M507,-54.5C570.48,-54.45 586.46,-57.33 651,-57.37"/>
</g>
<!-- W1&#45;&#45;X2 -->
<g id="edge8" class="edge">
<title>W1:e&#45;&#45;X2:w</title>
<path fill="none" stroke="#000000" stroke-width="2" d="M507,-20.75C572.27,-21 588.12,-27.87 651,-27.63"/>
<path fill="none" stroke="#8000ff" stroke-width="2" d="M507,-22.75C571.47,-22.83 587.32,-29.71 651,-29.63"/>
<path fill="none" stroke="#8000ff" stroke-width="2" d="M507,-24.75C570.68,-24.67 586.53,-31.54 651,-31.62"/>
<path fill="none" stroke="#000000" stroke-width="2" d="M507,-26.75C569.88,-26.5 585.73,-33.38 651,-33.62"/>
</g>
<!-- W2&#45;&#45;X3 -->
<g id="edge10" class="edge">
<title>W2:e&#45;&#45;X3:w</title>
<path fill="none" stroke="#000000" stroke-width="2" d="M1158,-104C1221.12,-104.14 1237.04,-99.02 1302,-98.88"/>
<path fill="none" stroke="#ff66cc" stroke-width="2" d="M1158,-106C1221.73,-106.05 1237.65,-100.92 1302,-100.88"/>
<path fill="none" stroke="#ff66cc" stroke-width="2" d="M1158,-108C1222.35,-107.95 1238.27,-102.83 1302,-102.87"/>
<path fill="none" stroke="#000000" stroke-width="2" d="M1158,-110C1222.96,-109.86 1238.88,-104.73 1302,-104.87"/>
</g>
<!-- W2&#45;&#45;X3 -->
<g id="edge12" class="edge">
<title>W2:e&#45;&#45;X3:w</title>
<path fill="none" stroke="#000000" stroke-width="2" d="M1158,-76.25C1221.79,-76.26 1237.79,-75.13 1302,-75.13"/>
<path fill="none" stroke="#00ffff" stroke-width="2" d="M1158,-78.25C1221.93,-78.25 1237.93,-77.13 1302,-77.13"/>
<path fill="none" stroke="#00ffff" stroke-width="2" d="M1158,-80.25C1222.07,-80.25 1238.07,-79.12 1302,-79.12"/>
<path fill="none" stroke="#000000" stroke-width="2" d="M1158,-82.25C1222.21,-82.24 1238.21,-81.12 1302,-81.12"/>
</g>
<!-- W2&#45;&#45;X3 -->
<g id="edge14" class="edge">
<title>W2:e&#45;&#45;X3:w</title>
<path fill="none" stroke="#000000" stroke-width="2" d="M1158,-48.5C1222.54,-48.55 1238.52,-51.42 1302,-51.38"/>
<path fill="none" stroke="#ffff00" stroke-width="2" d="M1158,-50.5C1222.19,-50.52 1238.16,-53.39 1302,-53.38"/>
<path fill="none" stroke="#ffff00" stroke-width="2" d="M1158,-52.5C1221.84,-52.48 1237.81,-55.36 1302,-55.37"/>
<path fill="none" stroke="#000000" stroke-width="2" d="M1158,-54.5C1221.48,-54.45 1237.46,-57.33 1302,-57.37"/>
</g>
<!-- W2&#45;&#45;X3 -->
<g id="edge16" class="edge">
<title>W2:e&#45;&#45;X3:w</title>
<path fill="none" stroke="#000000" stroke-width="2" d="M1158,-20.75C1223.27,-21 1239.12,-27.87 1302,-27.63"/>
<path fill="none" stroke="#8000ff" stroke-width="2" d="M1158,-22.75C1222.47,-22.83 1238.32,-29.71 1302,-29.63"/>
<path fill="none" stroke="#8000ff" stroke-width="2" d="M1158,-24.75C1221.68,-24.67 1237.53,-31.54 1302,-31.62"/>
<path fill="none" stroke="#000000" stroke-width="2" d="M1158,-26.75C1220.88,-26.5 1236.73,-33.38 1302,-33.62"/>
</g>
</g>
</svg>
