<?xml version="1.0" encoding="UTF-8" standalone="no"?>
<!DOCTYPE svg PUBLIC "-//W3C//DTD SVG 1.1//EN"
 "http://www.w3.org/Graphics/SVG/1.1/DTD/svg11.dtd">
<!-- Generated by graphviz version 13.0.0 (20250608.1624)
 -->
<!-- Pages: 1 -->
<svg width="674pt" height="224pt"
 viewBox="0.00 0.00 674.00 224.00" xmlns="http://www.w3.org/2000/svg" xmlns:xlink="http://www.w3.org/1999/xlink">
<g id="graph0" class="graph" transform="scale(1 1) rotate(0) translate(4 219.88)">
<polygon fill="#ffffff" stroke="none" points="-4,4 -4,-219.88 670,-219.88 670,4 -4,4"/>
<!-- AUTOGENERATED_F_1 -->
<g id="node1" class="node">
<title>AUTOGENERATED_F_1</title>
<polygon fill="#ffffff" stroke="black" points="300.5,-167.75 213.5,-167.75 213.5,-144 300.5,-144 300.5,-167.75"/>
<polygon fill="#ffffff" stroke="none" points="213.5,-144 213.5,-167.75 300.5,-167.75 300.5,-144 213.5,-144"/>
<polygon fill="none" stroke="black" points="213.5,-144 213.5,-167.75 264.25,-167.75 264.25,-144 213.5,-144"/>
<text xml:space="preserve" text-anchor="start" x="217.5" y="-150.45" font-family="arial" font-size="14.00">Ferrule</text>
<polygon fill="none" stroke="black" points="264.25,-144 264.25,-167.75 292.5,-167.75 292.5,-144 264.25,-144"/>
<text xml:space="preserve" text-anchor="start" x="268.25" y="-150.45" font-family="arial" font-size="14.00">GY</text>
<polygon fill="#999999" stroke="none" points="292.5,-144 292.5,-167.75 300.5,-167.75 300.5,-144 292.5,-144"/>
<polygon fill="none" stroke="black" points="292.5,-144 292.5,-167.75 300.5,-167.75 300.5,-144 292.5,-144"/>
</g>
<!-- X1 -->
<g id="node5" class="node">
<title>X1</title>
<polygon fill="#ffffff" stroke="black" points="666,-178.12 444.5,-178.12 444.5,-35.62 666,-35.62 666,-178.12"/>
<polygon fill="#ffffff" stroke="none" points="444.5,-35.62 444.5,-178.12 666,-178.12 666,-35.62 444.5,-35.62"/>
<polygon fill="none" stroke="black" points="444.5,-154.38 444.5,-178.12 666,-178.12 666,-154.38 444.5,-154.38"/>
<text xml:space="preserve" text-anchor="start" x="547" y="-160.82" font-family="arial" font-size="14.00">X1</text>
<polygon fill="none" stroke="black" points="444.5,-130.62 444.5,-154.38 553,-154.38 553,-130.62 444.5,-130.62"/>
<text xml:space="preserve" text-anchor="start" x="448.5" y="-137.07" font-family="arial" font-size="14.00">Screw connector</text>
<polygon fill="none" stroke="black" points="553,-130.62 553,-154.38 591,-154.38 591,-130.62 553,-130.62"/>
<text xml:space="preserve" text-anchor="start" x="557" y="-137.07" font-family="arial" font-size="14.00">male</text>
<polygon fill="none" stroke="black" points="591,-130.62 591,-154.38 629,-154.38 629,-130.62 591,-130.62"/>
<text xml:space="preserve" text-anchor="start" x="595" y="-137.07" font-family="arial" font-size="14.00">4&#45;pin</text>
<polygon fill="none" stroke="black" points="629,-130.62 629,-154.38 658,-154.38 658,-130.62 629,-130.62"/>
<text xml:space="preserve" text-anchor="start" x="633" y="-137.07" font-family="arial" font-size="14.00">GN</text>
<polygon fill="#00aa00" stroke="none" points="658,-130.62 658,-154.38 666,-154.38 666,-130.62 658,-130.62"/>
<polygon fill="none" stroke="black" points="658,-130.62 658,-154.38 666,-154.38 666,-130.62 658,-130.62"/>
<polygon fill="none" stroke="black" points="444.5,-106.88 444.5,-130.62 554.12,-130.62 554.12,-106.88 444.5,-106.88"/>
<text xml:space="preserve" text-anchor="start" x="495.56" y="-113.33" font-family="arial" font-size="14.00">1</text>
<polygon fill="none" stroke="black" points="554.12,-106.88 554.12,-130.62 666,-130.62 666,-106.88 554.12,-106.88"/>
<text xml:space="preserve" text-anchor="start" x="605.56" y="-113.33" font-family="arial" font-size="14.00">A</text>
<polygon fill="none" stroke="black" points="444.5,-83.12 444.5,-106.88 554.12,-106.88 554.12,-83.12 444.5,-83.12"/>
<text xml:space="preserve" text-anchor="start" x="495.56" y="-89.58" font-family="arial" font-size="14.00">2</text>
<polygon fill="none" stroke="black" points="554.12,-83.12 554.12,-106.88 666,-106.88 666,-83.12 554.12,-83.12"/>
<text xml:space="preserve" text-anchor="start" x="605.56" y="-89.58" font-family="arial" font-size="14.00">B</text>
<polygon fill="none" stroke="black" points="444.5,-59.38 444.5,-83.12 554.12,-83.12 554.12,-59.38 444.5,-59.38"/>
<text xml:space="preserve" text-anchor="start" x="495.56" y="-65.83" font-family="arial" font-size="14.00">3</text>
<polygon fill="none" stroke="black" points="554.12,-59.38 554.12,-83.12 666,-83.12 666,-59.38 554.12,-59.38"/>
<text xml:space="preserve" text-anchor="start" x="605.19" y="-65.83" font-family="arial" font-size="14.00">C</text>
<polygon fill="none" stroke="black" points="444.5,-35.62 444.5,-59.38 554.12,-59.38 554.12,-35.62 444.5,-35.62"/>
<text xml:space="preserve" text-anchor="start" x="495.56" y="-42.08" font-family="arial" font-size="14.00">4</text>
<polygon fill="none" stroke="black" points="554.12,-35.62 554.12,-59.38 666,-59.38 666,-35.62 554.12,-35.62"/>
<text xml:space="preserve" text-anchor="start" x="605.19" y="-42.08" font-family="arial" font-size="14.00">D</text>
</g>
<!-- AUTOGENERATED_F_1&#45;&#45;X1 -->
<g id="edge5" class="edge">
<title>AUTOGENERATED_F_1:e&#45;&#45;X1:w</title>
<path fill="none" stroke="#000000" stroke-dasharray="5,2" d="M300.5,-155.88C362.59,-155.88 376.78,-123.11 433.07,-119.14"/>
<polygon fill="#000000" stroke="#000000" points="433.11,-122.64 442.99,-118.8 432.87,-115.65 433.11,-122.64"/>
</g>
<!-- AUTOGENERATED_F_2 -->
<g id="node2" class="node">
<title>AUTOGENERATED_F_2</title>
<polygon fill="#ffffff" stroke="black" points="300.5,-119.75 213.5,-119.75 213.5,-96 300.5,-96 300.5,-119.75"/>
<polygon fill="#ffffff" stroke="none" points="213.5,-96 213.5,-119.75 300.5,-119.75 300.5,-96 213.5,-96"/>
<polygon fill="none" stroke="black" points="213.5,-96 213.5,-119.75 264.25,-119.75 264.25,-96 213.5,-96"/>
<text xml:space="preserve" text-anchor="start" x="217.5" y="-102.45" font-family="arial" font-size="14.00">Ferrule</text>
<polygon fill="none" stroke="black" points="264.25,-96 264.25,-119.75 292.5,-119.75 292.5,-96 264.25,-96"/>
<text xml:space="preserve" text-anchor="start" x="268.25" y="-102.45" font-family="arial" font-size="14.00">GY</text>
<polygon fill="#999999" stroke="none" points="292.5,-96 292.5,-119.75 300.5,-119.75 300.5,-96 292.5,-96"/>
<polygon fill="none" stroke="black" points="292.5,-96 292.5,-119.75 300.5,-119.75 300.5,-96 292.5,-96"/>
</g>
<!-- AUTOGENERATED_F_2&#45;&#45;X1 -->
<g id="edge6" class="edge">
<title>AUTOGENERATED_F_2:e&#45;&#45;X1:w</title>
<path fill="none" stroke="#000000" stroke-dasharray="5,2" d="M300.5,-107.88C360.74,-107.88 378.12,-96.56 433,-95.14"/>
<polygon fill="#000000" stroke="#000000" points="433.03,-98.64 442.99,-95.02 432.94,-91.65 433.03,-98.64"/>
</g>
<!-- AUTOGENERATED_F_3 -->
<g id="node3" class="node">
<title>AUTOGENERATED_F_3</title>
<polygon fill="#ffffff" stroke="black" points="300.5,-71.75 213.5,-71.75 213.5,-48 300.5,-48 300.5,-71.75"/>
<polygon fill="#ffffff" stroke="none" points="213.5,-48 213.5,-71.75 300.5,-71.75 300.5,-48 213.5,-48"/>
<polygon fill="none" stroke="black" points="213.5,-48 213.5,-71.75 264.25,-71.75 264.25,-48 213.5,-48"/>
<text xml:space="preserve" text-anchor="start" x="217.5" y="-54.45" font-family="arial" font-size="14.00">Ferrule</text>
<polygon fill="none" stroke="black" points="264.25,-48 264.25,-71.75 292.5,-71.75 292.5,-48 264.25,-48"/>
<text xml:space="preserve" text-anchor="start" x="268.25" y="-54.45" font-family="arial" font-size="14.00">GY</text>
<polygon fill="#999999" stroke="none" points="292.5,-48 292.5,-71.75 300.5,-71.75 300.5,-48 292.5,-48"/>
<polygon fill="none" stroke="black" points="292.5,-48 292.5,-71.75 300.5,-71.75 300.5,-48 292.5,-48"/>
</g>
<!-- AUTOGENERATED_F_3&#45;&#45;X1 -->
<g id="edge7" class="edge">
<title>AUTOGENERATED_F_3:e&#45;&#45;X1:w</title>
<path fill="none" stroke="#000000" stroke-dasharray="5,2" d="M300.5,-59.88C360.69,-59.88 378.16,-69.87 433.01,-71.12"/>
<polygon fill="#000000" stroke="#000000" points="432.95,-74.62 442.99,-71.23 433.03,-67.62 432.95,-74.62"/>
</g>
<!-- AUTOGENERATED_F_4 -->
<g id="node4" class="node">
<title>AUTOGENERATED_F_4</title>
<polygon fill="#ffffff" stroke="black" points="300.5,-23.75 213.5,-23.75 213.5,0 300.5,0 300.5,-23.75"/>
<polygon fill="#ffffff" stroke="none" points="213.5,0 213.5,-23.75 300.5,-23.75 300.5,0 213.5,0"/>
<polygon fill="none" stroke="black" points="213.5,0 213.5,-23.75 264.25,-23.75 264.25,0 213.5,0"/>
<text xml:space="preserve" text-anchor="start" x="217.5" y="-6.45" font-family="arial" font-size="14.00">Ferrule</text>
<polygon fill="none" stroke="black" points="264.25,0 264.25,-23.75 292.5,-23.75 292.5,0 264.25,0"/>
<text xml:space="preserve" text-anchor="start" x="268.25" y="-6.45" font-family="arial" font-size="14.00">GY</text>
<polygon fill="#999999" stroke="none" points="292.5,0 292.5,-23.75 300.5,-23.75 300.5,0 292.5,0"/>
<polygon fill="none" stroke="black" points="292.5,0 292.5,-23.75 300.5,-23.75 300.5,0 292.5,0"/>
</g>
<!-- AUTOGENERATED_F_4&#45;&#45;X1 -->
<g id="edge8" class="edge">
<title>AUTOGENERATED_F_4:e&#45;&#45;X1:w</title>
<path fill="none" stroke="#000000" stroke-dasharray="5,2" d="M300.5,-11.88C362.44,-11.88 376.9,-43.32 433.09,-47.12"/>
<polygon fill="#000000" stroke="#000000" points="432.88,-50.62 442.99,-47.45 433.11,-43.62 432.88,-50.62"/>
</g>
<!-- W1 -->
<g id="node6" class="node">
<title>W1</title>
<polygon fill="#ffffff" stroke="black" points="69.5,-215.88 0,-215.88 0,-17.88 69.5,-17.88 69.5,-215.88"/>
<polygon fill="#ffffff" stroke="none" points="0,-17.88 0,-215.88 69.5,-215.88 69.5,-17.88 0,-17.88"/>
<polygon fill="none" stroke="black" points="0,-192.12 0,-215.88 69.5,-215.88 69.5,-192.12 0,-192.12"/>
<text xml:space="preserve" text-anchor="start" x="24.25" y="-198.57" font-family="arial" font-size="14.00">W1</text>
<polygon fill="none" stroke="black" points="0,-168.38 0,-192.12 26.67,-192.12 26.67,-168.38 0,-168.38"/>
<text xml:space="preserve" text-anchor="start" x="6.21" y="-174.82" font-family="arial" font-size="14.00">4x</text>
<polygon fill="none" stroke="black" points="26.67,-168.38 26.67,-192.12 57.08,-192.12 57.08,-168.38 26.67,-168.38"/>
<text xml:space="preserve" text-anchor="start" x="32.88" y="-174.82" font-family="arial" font-size="14.00">BK</text>
<polygon fill="#000000" stroke="none" points="57.08,-168.38 57.08,-192.12 69.5,-192.12 69.5,-168.38 57.08,-168.38"/>
<polygon fill="none" stroke="black" points="57.08,-168.38 57.08,-192.12 69.5,-192.12 69.5,-168.38 57.08,-168.38"/>
<text xml:space="preserve" text-anchor="start" x="2" y="-153.07" font-family="arial" font-size="14.00"> </text>
<text xml:space="preserve" text-anchor="start" x="2" y="-133.32" font-family="arial" font-size="14.00"> </text>
<text xml:space="preserve" text-anchor="start" x="9.75" y="-133.32" font-family="arial" font-size="14.00"> </text>
<text xml:space="preserve" text-anchor="start" x="20.12" y="-133.32" font-family="arial" font-size="14.00">1:BK</text>
<text xml:space="preserve" text-anchor="start" x="56" y="-133.32" font-family="arial" font-size="14.00"> </text>
<text xml:space="preserve" text-anchor="start" x="63.75" y="-133.32" font-family="arial" font-size="14.00"> </text>
<polygon fill="#000000" stroke="none" points="0,-126.88 0,-128.88 69.5,-128.88 69.5,-126.88 0,-126.88"/>
<polygon fill="#000000" stroke="none" points="0,-124.88 0,-126.88 69.5,-126.88 69.5,-124.88 0,-124.88"/>
<polygon fill="#000000" stroke="none" points="0,-122.88 0,-124.88 69.5,-124.88 69.5,-122.88 0,-122.88"/>
<polygon fill="#000000" stroke="none" points="0,-120.88 0,-122.88 69.5,-122.88 69.5,-120.88 0,-120.88"/>
<text xml:space="preserve" text-anchor="start" x="2" y="-105.58" font-family="arial" font-size="14.00"> </text>
<text xml:space="preserve" text-anchor="start" x="9.75" y="-105.58" font-family="arial" font-size="14.00"> </text>
<text xml:space="preserve" text-anchor="start" x="17.5" y="-105.58" font-family="arial" font-size="14.00">2:WH</text>
<text xml:space="preserve" text-anchor="start" x="56" y="-105.58" font-family="arial" font-size="14.00"> </text>
<text xml:space="preserve" text-anchor="start" x="63.75" y="-105.58" font-family="arial" font-size="14.00"> </text>
<polygon fill="#000000" stroke="none" points="0,-99.12 0,-101.12 69.5,-101.12 69.5,-99.12 0,-99.12"/>
<polygon fill="#ffffff" stroke="none" points="0,-97.12 0,-99.12 69.5,-99.12 69.5,-97.12 0,-97.12"/>
<polygon fill="#ffffff" stroke="none" points="0,-95.12 0,-97.12 69.5,-97.12 69.5,-95.12 0,-95.12"/>
<polygon fill="#000000" stroke="none" points="0,-93.12 0,-95.12 69.5,-95.12 69.5,-93.12 0,-93.12"/>
<text xml:space="preserve" text-anchor="start" x="2" y="-77.83" font-family="arial" font-size="14.00"> </text>
<text xml:space="preserve" text-anchor="start" x="9.75" y="-77.83" font-family="arial" font-size="14.00"> </text>
<text xml:space="preserve" text-anchor="start" x="19.75" y="-77.83" font-family="arial" font-size="14.00">3:BU</text>
<text xml:space="preserve" text-anchor="start" x="56" y="-77.83" font-family="arial" font-size="14.00"> </text>
<text xml:space="preserve" text-anchor="start" x="63.75" y="-77.83" font-family="arial" font-size="14.00"> </text>
<polygon fill="#000000" stroke="none" points="0,-71.38 0,-73.38 69.5,-73.38 69.5,-71.38 0,-71.38"/>
<polygon fill="#0066ff" stroke="none" points="0,-69.38 0,-71.38 69.5,-71.38 69.5,-69.38 0,-69.38"/>
<polygon fill="#0066ff" stroke="none" points="0,-67.38 0,-69.38 69.5,-69.38 69.5,-67.38 0,-67.38"/>
<polygon fill="#000000" stroke="none" points="0,-65.38 0,-67.38 69.5,-67.38 69.5,-65.38 0,-65.38"/>
<text xml:space="preserve" text-anchor="start" x="2" y="-50.08" font-family="arial" font-size="14.00"> </text>
<text xml:space="preserve" text-anchor="start" x="9.75" y="-50.08" font-family="arial" font-size="14.00"> </text>
<text xml:space="preserve" text-anchor="start" x="19.75" y="-50.08" font-family="arial" font-size="14.00">4:BN</text>
<text xml:space="preserve" text-anchor="start" x="56" y="-50.08" font-family="arial" font-size="14.00"> </text>
<text xml:space="preserve" text-anchor="start" x="63.75" y="-50.08" font-family="arial" font-size="14.00"> </text>
<polygon fill="#000000" stroke="none" points="0,-43.62 0,-45.62 69.5,-45.62 69.5,-43.62 0,-43.62"/>
<polygon fill="#895956" stroke="none" points="0,-41.62 0,-43.62 69.5,-43.62 69.5,-41.62 0,-41.62"/>
<polygon fill="#895956" stroke="none" points="0,-39.62 0,-41.62 69.5,-41.62 69.5,-39.62 0,-39.62"/>
<polygon fill="#000000" stroke="none" points="0,-37.62 0,-39.62 69.5,-39.62 69.5,-37.62 0,-37.62"/>
<text xml:space="preserve" text-anchor="start" x="2" y="-22.32" font-family="arial" font-size="14.00"> </text>
</g>
<!-- W1&#45;&#45;AUTOGENERATED_F_1 -->
<g id="edge1" class="edge">
<title>W1:e&#45;&#45;AUTOGENERATED_F_1:w</title>
<path fill="none" stroke="#000000" stroke-width="2" d="M69.5,-121.88C137.73,-123.71 150.8,-154.71 213.5,-152.88"/>
<path fill="none" stroke="#000000" stroke-width="2" d="M69.5,-123.88C135.89,-124.49 148.96,-155.49 213.5,-154.88"/>
<path fill="none" stroke="#000000" stroke-width="2" d="M69.5,-125.87C134.04,-125.26 147.11,-156.26 213.5,-156.87"/>
<path fill="none" stroke="#000000" stroke-width="2" d="M69.5,-127.87C132.2,-126.04 145.27,-157.04 213.5,-158.87"/>
</g>
<!-- W1&#45;&#45;AUTOGENERATED_F_2 -->
<g id="edge2" class="edge">
<title>W1:e&#45;&#45;AUTOGENERATED_F_2:w</title>
<path fill="none" stroke="#000000" stroke-width="2" d="M69.5,-94.13C135.38,-94.65 151.02,-105.4 213.5,-104.88"/>
<path fill="none" stroke="#ffffff" stroke-width="2" d="M69.5,-96.13C134.24,-96.3 149.89,-107.05 213.5,-106.88"/>
<path fill="none" stroke="#ffffff" stroke-width="2" d="M69.5,-98.12C133.11,-97.95 148.76,-108.7 213.5,-108.87"/>
<path fill="none" stroke="#000000" stroke-width="2" d="M69.5,-100.12C131.98,-99.6 147.62,-110.35 213.5,-110.87"/>
</g>
<!-- W1&#45;&#45;AUTOGENERATED_F_3 -->
<g id="edge3" class="edge">
<title>W1:e&#45;&#45;AUTOGENERATED_F_3:w</title>
<path fill="none" stroke="#000000" stroke-width="2" d="M69.5,-66.38C132.09,-66.81 147.81,-57.31 213.5,-56.88"/>
<path fill="none" stroke="#0066ff" stroke-width="2" d="M69.5,-68.38C133.12,-68.52 148.84,-59.02 213.5,-58.88"/>
<path fill="none" stroke="#0066ff" stroke-width="2" d="M69.5,-70.37C134.16,-70.23 149.88,-60.73 213.5,-60.87"/>
<path fill="none" stroke="#000000" stroke-width="2" d="M69.5,-72.37C135.19,-71.94 150.91,-62.44 213.5,-62.87"/>
</g>
<!-- W1&#45;&#45;AUTOGENERATED_F_4 -->
<g id="edge4" class="edge">
<title>W1:e&#45;&#45;AUTOGENERATED_F_4:w</title>
<path fill="none" stroke="#000000" stroke-width="2" d="M69.5,-38.63C132.11,-40.4 145.41,-10.65 213.5,-8.88"/>
<path fill="none" stroke="#895956" stroke-width="2" d="M69.5,-40.63C133.94,-41.22 147.24,-11.47 213.5,-10.88"/>
<path fill="none" stroke="#895956" stroke-width="2" d="M69.5,-42.62C135.76,-42.03 149.06,-12.28 213.5,-12.87"/>
<path fill="none" stroke="#000000" stroke-width="2" d="M69.5,-44.62C137.59,-42.85 150.89,-13.1 213.5,-14.87"/>
</g>
</g>
</svg>
